<?xml version="1.0" standalone="no"?>
<!DOCTYPE svg PUBLIC "-//W3C//DTD SVG 20010904//EN"
 "http://www.w3.org/TR/2001/REC-SVG-20010904/DTD/svg10.dtd">
<svg version="1.0" xmlns="http://www.w3.org/2000/svg"
 width="159.000000pt" height="194.000000pt" viewBox="0 0 159.000000 194.000000"
 preserveAspectRatio="xMidYMid meet">

<g transform="translate(0.000000,194.000000) scale(0.100000,-0.100000)"
fill="#000000" stroke="none">
<path d="M0 970 l0 -970 793 2 792 3 3 968 2 967 -795 0 -795 0 0 -970z m885
628 c55 -22 104 -44 108 -48 5 -4 -8 -18 -28 -30 -33 -20 -36 -26 -31 -54 3
-17 11 -68 18 -112 l11 -82 -37 -60 c-38 -64 -90 -116 -126 -127 -33 -11 -86
3 -118 30 -39 33 -112 157 -112 190 0 14 -4 24 -9 20 -14 -8 -17 28 -11 123 3
46 1 87 -4 92 -6 6 6 16 30 26 21 9 68 29 104 45 36 15 74 28 85 28 11 1 65
-18 120 -41z m-235 -539 c52 -39 201 -38 241 2 23 23 76 25 132 5 52 -19 72
-39 103 -103 25 -50 29 -53 63 -53 20 0 42 -5 49 -12 13 -13 14 -70 2 -108 -6
-16 -7 -7 -3 27 9 89 42 83 -468 83 l-448 0 -15 -22 c-9 -12 -18 -20 -21 -17
-2 3 2 15 10 27 11 14 28 22 57 24 38 3 43 6 52 36 14 48 74 112 116 122 62
14 100 11 130 -11z m-353 -241 c-3 -7 -5 -2 -5 12 0 14 2 19 5 13 2 -7 2 -19
0 -25z m21 -83 c0 -16 -2 -15 -8 5 -4 14 -8 34 -8 45 0 16 2 15 8 -5 4 -14 8
-34 8 -45z m877 -157 c-21 -95 -42 -179 -47 -185 -15 -19 -741 -19 -756 0 -12
14 -75 294 -69 310 1 5 17 -57 34 -138 18 -81 37 -153 44 -161 17 -20 721 -21
738 -1 6 8 27 91 48 185 20 95 38 170 41 168 2 -3 -13 -83 -33 -178z m-405 76
c11 -12 10 -18 -3 -32 -16 -15 -18 -15 -34 0 -13 14 -14 20 -3 32 7 9 16 16
20 16 4 0 13 -7 20 -16z m383 -298 c13 -34 -12 -36 -404 -36 -326 0 -388 2
-399 15 -6 8 -9 19 -5 25 4 7 139 10 405 10 329 0 399 -2 403 -14z"/>
<path d="M570 1427 c1 -107 16 -101 26 10 6 59 4 71 -10 76 -14 6 -16 -5 -16
-86z"/>
<path d="M647 1371 c-37 -42 -49 -103 -24 -118 7 -4 19 -23 26 -41 18 -44 78
-92 114 -92 41 0 81 27 108 72 13 21 32 48 42 60 18 22 24 68 8 68 -5 0 -13
13 -19 28 -5 16 -16 29 -23 30 -8 1 -60 3 -116 6 -85 3 -104 1 -116 -13z"/>
</g>
</svg>
